<svg width="48" height="48" viewBox="0 0 48 48" fill="none" xmlns="http://www.w3.org/2000/svg">
<path fill-rule="evenodd" clip-rule="evenodd" d="M22.4609 15.5774C23.4971 14.5676 24.9026 14.0002 26.3681 14H29.2101C29.4195 14 29.6203 14.081 29.7683 14.2253C29.9164 14.3696 29.9996 14.5652 29.9996 14.7692V18.4615C29.9996 18.6656 29.9164 18.8612 29.7683 19.0055C29.6203 19.1497 29.4195 19.2308 29.2101 19.2308H26.3681C26.3474 19.2308 26.3268 19.2347 26.3077 19.2425C26.2885 19.2502 26.2711 19.2615 26.2565 19.2758C26.2418 19.2901 26.2302 19.3071 26.2222 19.3257C26.2143 19.3444 26.2102 19.3644 26.2102 19.3846V21.3846H29.2101C29.3301 21.3846 29.4486 21.4111 29.5565 21.4624C29.6643 21.5136 29.7588 21.5882 29.8327 21.6803C29.9066 21.7725 29.9579 21.8798 29.9828 21.9942C30.0077 22.1086 30.0055 22.2271 29.9764 22.3405L29.0291 26.0328C28.9863 26.1993 28.8877 26.3471 28.7488 26.4526C28.61 26.5582 28.4389 26.6155 28.2628 26.6154H26.2102V33.2308C26.2102 33.4348 26.1271 33.6304 25.979 33.7747C25.831 33.919 25.6302 34 25.4208 34H21.6314C21.4221 34 21.2213 33.919 21.0732 33.7747C20.9252 33.6304 20.842 33.4348 20.842 33.2308V26.6154H18.7894C18.5801 26.6154 18.3793 26.5343 18.2312 26.3901C18.0832 26.2458 18 26.0502 18 25.8462V22.1538C18 22.0528 18.0204 21.9528 18.0601 21.8595C18.0998 21.7661 18.1579 21.6813 18.2312 21.6099C18.3045 21.5385 18.3916 21.4818 18.4873 21.4432C18.5831 21.4045 18.6858 21.3846 18.7894 21.3846H20.842V19.3846C20.8422 17.9566 21.4245 16.5871 22.4609 15.5774ZM26.3681 15.5385C25.3212 15.5385 24.3173 15.9437 23.577 16.665C22.8368 17.3863 22.4209 18.3646 22.4209 19.3846V22.1538C22.4209 22.3579 22.3377 22.5535 22.1897 22.6978C22.0416 22.842 21.8408 22.9231 21.6314 22.9231H19.5789V25.0769H21.6314C21.8408 25.0769 22.0416 25.158 22.1897 25.3022C22.3377 25.4465 22.4209 25.6421 22.4209 25.8462V32.4615H24.6313V25.8462C24.6313 25.6421 24.7145 25.4465 24.8626 25.3022C25.0106 25.158 25.2114 25.0769 25.4208 25.0769H27.646L28.1986 22.9231H25.4208C25.2114 22.9231 25.0106 22.842 24.8626 22.6978C24.7145 22.5535 24.6313 22.3579 24.6313 22.1538V19.3846C24.6313 18.9358 24.8143 18.5053 25.14 18.188C25.4657 17.8706 25.9075 17.6923 26.3681 17.6923H28.4207V15.5385H26.3681Z" fill="#4A2A13"/>
</svg>
