<svg width="48" height="48" viewBox="0 0 48 48" fill="none" xmlns="http://www.w3.org/2000/svg">
<path fill-rule="evenodd" clip-rule="evenodd" d="M28 21.7311C28 24.0084 26.2091 25.8544 24 25.8544C21.7909 25.8544 20 24.0084 20 21.7311C20 19.4539 21.7909 17.6079 24 17.6079C26.2091 17.6079 28 19.4539 28 21.7311ZM26 21.7311C26 22.8698 25.1046 23.7928 24 23.7928C22.8954 23.7928 22 22.8698 22 21.7311C22 20.5925 22.8954 19.6695 24 19.6695C25.1046 19.6695 26 20.5925 26 21.7311Z" fill="#4A2A13"/>
<path fill-rule="evenodd" clip-rule="evenodd" d="M32 22.2465C32 26.5144 28.1908 30.7822 25.8293 33.0179C25.2891 33.5293 25.019 33.7851 24.5856 33.9219C24.2556 34.026 23.7444 34.026 23.4144 33.9219C22.981 33.7851 22.7109 33.5293 22.1707 33.0179C19.8092 30.7822 16 26.5144 16 22.2465C16 17.6921 19.5817 14 24 14C28.4183 14 32 17.6921 32 22.2465ZM30 22.2465C30 23.778 29.2997 25.4969 28.1495 27.2303C27.0205 28.9316 25.5978 30.4379 24.4765 31.4995C24.337 31.6315 24.2357 31.7274 24.1467 31.808C24.0792 31.8693 24.0327 31.909 24 31.9355C23.9673 31.909 23.9208 31.8693 23.8533 31.808C23.7643 31.7274 23.663 31.6315 23.5235 31.4995C22.4022 30.4379 20.9795 28.9316 19.8505 27.2303C18.7003 25.4969 18 23.778 18 22.2465C18 18.8307 20.6863 16.0616 24 16.0616C27.3137 16.0616 30 18.8307 30 22.2465Z" fill="#4A2A13"/>
</svg>
