<svg width="162" height="64" viewBox="0 0 162 64" fill="none" xmlns="http://www.w3.org/2000/svg">
<path d="M19.9807 52.8857C20.5229 52.9639 21.0638 53.0421 21.606 53.1216C21.9887 53.1773 22.6784 53.1667 22.9867 53.4371L23.3388 52.1077C22.9455 52.2084 22.6372 52.162 22.2651 52.0175L21.8412 53.5511C22.8511 53.7737 23.8611 53.9964 24.8697 54.2191L25.2936 52.6855C24.184 52.5344 23.093 52.3051 22.0166 51.9976L21.804 53.5603C23.0943 53.4649 24.3873 54.0958 25.6537 54.3026C26.9335 54.512 28.2211 54.5809 29.5168 54.5014V52.9109C28.7221 53.0129 27.9275 53.1137 27.1328 53.2157C26.1268 53.3443 26.0896 54.7148 27.1328 54.8062C29.76 55.0382 32.3925 54.96 35.0024 54.5862C36.2556 54.406 37.4981 54.1555 38.7419 53.9248C39.7253 53.7419 41.3425 53.7446 41.401 52.4244C41.4209 51.9711 41.0183 51.661 40.6037 51.6292C39.4821 51.5417 38.3658 51.4171 37.2536 51.2461C37.3173 51.7312 37.3811 52.215 37.4436 52.7001C37.7931 52.5411 38.1359 52.5238 38.5107 52.5583V50.9678C38.0908 50.9505 37.6722 50.9307 37.2522 50.9174C36.6316 50.8975 37.2057 50.9824 37.0423 50.8551C36.9267 50.7663 36.8296 50.655 36.6914 50.5887C36.3725 50.435 36.0257 50.4654 35.6841 50.4098C35.2842 50.3448 34.8988 50.199 34.5054 50.1062C32.932 49.7364 31.2204 49.7683 29.6112 49.6529C27.9368 49.5323 26.3833 49.5827 24.7381 49.9286C23.885 50.1076 23.0319 50.2945 22.18 50.4774C21.509 50.6218 20.8126 50.7584 20.3542 51.3137C19.9821 51.7644 20.087 52.4695 20.7063 52.6431C21.2698 52.8009 21.8398 52.6484 22.4086 52.8075C23.0438 52.9851 23.6365 53.2436 24.2943 53.3443C25.5115 53.5299 26.8923 53.286 28.0271 53.836L28.4298 52.3542C27.5819 52.2733 26.7341 52.1925 25.8863 52.1116C25.2179 52.048 24.8072 53.0408 25.3228 53.4689C26.6424 54.5677 28.754 54.2138 30.3527 54.1846C32.3075 54.1488 34.2622 54.0454 36.2037 53.8188C37.0396 53.722 38.0469 53.7154 38.8323 53.4092C39.5087 53.1455 39.8303 52.3383 39.3067 51.7551C38.8123 51.205 37.7838 51.315 37.1207 51.2726C36.2835 51.2183 35.4596 51.4675 35.437 52.443L37.0037 52.2309C36.9851 52.0931 36.9652 51.9566 36.9466 51.8187L35.6137 52.5928C35.732 52.6935 35.8224 52.8154 35.8848 52.9573L37.1366 51.9937C36.6768 51.5656 36.1931 51.1706 35.6895 50.7928C35.2562 50.4681 34.6583 50.8299 34.5187 51.2687C34.3234 51.881 34.4031 52.4642 34.6994 53.0275C35.0569 53.7061 36.2463 53.4159 36.1851 52.6259C36.0841 51.3243 34.7101 50.8869 33.6058 50.6444C32.3181 50.3607 30.9919 50.3647 29.6803 50.3872C28.3474 50.4098 27.0411 50.3342 25.7109 50.26C24.4498 50.1897 23.1608 50.3183 22.079 51.0208C21.4173 51.4502 21.6751 52.4788 22.4817 52.5026C24.6797 52.5676 26.7341 51.5881 28.9228 51.6119V50.0214C27.8982 50.0943 26.8776 50.2056 25.861 50.3501C24.9853 50.4747 24.1574 50.5516 23.4491 51.1176C22.9814 51.4926 23.2551 52.3224 23.8013 52.447C24.7275 52.6577 25.6192 52.4841 26.5507 52.5451C27.0504 52.5782 27.4637 52.769 27.9314 52.9228C28.3992 53.0765 28.9122 53.1534 29.4198 53.176C31.4331 53.2621 33.4822 53.0938 35.4954 53.0381L35.0928 51.5563C34.4961 51.8744 33.4928 51.7074 32.8324 51.7259C32.0098 51.7485 31.1872 51.771 30.366 51.7949C28.6783 51.8412 26.9906 51.889 25.3016 51.9353V53.5259C25.9381 53.4954 26.8484 53.3244 26.968 52.5649C27.0251 52.2031 26.8976 51.8757 26.6198 51.6411C26.2863 51.3601 25.9713 51.4648 25.6072 51.3389C25.671 51.824 25.7348 52.3078 25.7973 52.7929L25.8664 52.7545L24.9003 52.6299L24.9827 52.6948L24.7488 52.1328L24.7514 52.2336L25.1461 51.547C25.4438 51.3972 24.7674 51.5218 24.677 51.5589C23.9288 51.8678 23.9049 53.2038 24.8896 53.1216C26.2278 53.0103 27.5687 52.9586 28.9122 52.9798C29.562 52.9904 30.2105 53.0169 30.859 53.0606C31.1553 53.0805 32.1254 53.0103 32.2676 53.2979L32.7447 52.1302C32.6875 52.1845 32.6383 52.1766 32.5972 52.1063L32.245 53.4357C32.831 53.2581 33.7214 53.1601 34.0204 52.5464C34.3818 51.8068 33.7666 51.1785 33.0516 51.0897C32.152 50.9784 31.1806 51.0791 30.2743 51.0818C29.3135 51.0844 28.3527 51.0871 27.3906 51.0897C26.3647 51.0924 26.362 52.6829 27.3906 52.6802C28.3514 52.6776 29.3122 52.6749 30.2743 52.6723C30.7115 52.6723 31.1473 52.6696 31.5845 52.6683C31.8463 52.6683 32.1081 52.667 32.3712 52.6657H32.633C33.0237 52.724 32.9998 52.6206 32.5626 52.3555L32.6423 51.7432C32.8815 51.5974 32.9134 51.5576 32.738 51.6239C32.6357 51.6544 32.5334 51.6862 32.4324 51.7167C32.2277 51.7789 32.0244 51.8399 31.8198 51.9022C31.255 52.0732 31.0291 52.8035 31.4676 53.2316C31.9327 53.6863 32.5374 53.8519 33.1672 53.665C33.6882 53.5113 33.8716 52.9599 33.6443 52.4973C33.045 51.2779 31.0729 51.4714 29.9513 51.4224C28.2637 51.3495 26.5733 51.3919 24.891 51.5324L25.1036 53.0951C24.976 53.0514 24.9813 53.0434 25.1182 53.0713C25.2139 53.0845 25.3096 53.0964 25.4052 53.1044C25.6086 53.0964 25.7747 53.0116 25.9541 52.9228C26.1959 52.8022 26.3554 52.5 26.3487 52.2362C26.3421 51.9406 26.2664 51.6954 26.0311 51.5086C25.7441 51.2806 25.4013 51.1984 25.065 51.384L24.9959 51.4224C24.3621 51.7736 24.5654 52.6617 25.186 52.8764C25.3029 52.9162 25.8504 53.0964 25.6165 52.8817L25.3826 52.3197L25.3893 52.4642L25.6232 51.9022C25.6232 51.9022 25.364 51.938 25.3029 51.9406C24.2823 51.9884 24.2717 53.5603 25.3029 53.5312C27.1634 53.4795 29.0251 53.4278 30.8856 53.3761C31.7945 53.3509 32.7035 53.3257 33.6124 53.3005C34.4004 53.2793 35.1845 53.3151 35.8981 52.9361C36.5944 52.5649 36.2768 51.4317 35.4954 51.4542C33.5526 51.5086 31.5992 51.6278 29.6563 51.5987C28.7062 51.5841 27.9288 51.1308 27.0079 51.0075C26.087 50.8843 25.1368 51.1295 24.2239 50.9214L24.576 52.2508C25.0119 51.9022 26.0564 51.9194 26.5879 51.8505C27.3627 51.7485 28.1414 51.6756 28.9215 51.6199C29.9341 51.547 29.9593 50.0413 28.9215 50.0294C26.7275 50.0055 24.6717 50.985 22.4804 50.9201L22.883 52.4019C23.7043 51.8691 24.6292 51.8081 25.586 51.8518C26.6783 51.9022 27.756 52.0109 28.8524 52.0003C29.8716 51.9897 30.8922 51.946 31.9101 52.0149C32.4151 52.0493 32.9134 52.1169 33.4038 52.2402C33.6257 52.2959 33.849 52.3595 34.0629 52.4403C34.2051 52.4867 34.3433 52.5464 34.4749 52.6179C34.6224 52.7598 34.6609 52.7664 34.5891 52.6365L36.0748 52.2349C35.9659 52.0281 35.9858 51.9181 36.0549 51.7021L34.8842 52.1779C35.2775 52.4735 35.6483 52.7942 36.0084 53.1296C36.6609 53.7379 37.724 52.9652 37.2602 52.166C37.114 51.9128 36.9426 51.6901 36.7393 51.4794C36.1307 50.8485 35.3054 51.5311 35.4064 52.2535C35.425 52.3913 35.445 52.5278 35.4636 52.6657C35.5911 53.5776 37.0104 53.3178 37.0303 52.4536C36.7539 52.7876 36.7831 52.9281 37.1193 52.8738C37.2815 52.8857 37.4436 52.8976 37.6057 52.9082C37.7652 52.9201 38.1173 52.9983 38.2768 52.9559C38.5359 52.1487 38.419 51.8293 37.9246 51.999C37.7957 52.0202 37.6668 52.0401 37.5379 52.0599C37.2217 52.1077 36.9054 52.1527 36.5891 52.1925C35.4263 52.3396 34.2569 52.4377 33.0862 52.5053C31.9154 52.5729 30.7407 52.6047 29.5673 52.6166C28.9587 52.6219 28.35 52.6272 27.7414 52.6179C27.3175 52.6113 26.7939 52.6431 26.4484 52.3555L25.885 53.7128C26.7328 53.7936 27.5806 53.8745 28.4284 53.9553C29.2098 54.0295 29.5248 52.8101 28.8311 52.4735C27.5833 51.8678 26.2823 51.9579 24.9375 51.8399C24.2704 51.7816 23.6724 51.547 23.0398 51.3469C22.7302 51.2488 22.4166 51.1732 22.0937 51.1414C21.7707 51.1096 21.4305 51.2037 21.1289 51.1189L21.481 52.4483C21.8465 52.0056 22.7182 51.9963 23.2485 51.8823C24.0086 51.7193 24.766 51.5483 25.5275 51.3959C27.1075 51.0804 28.6371 51.1838 30.2331 51.2978C31.7201 51.4052 33.2257 51.4198 34.6702 51.8094C35.0104 51.9009 35.3785 51.9221 35.7107 52.0202C35.7918 52.044 35.8888 52.0175 35.9632 52.052C36.0722 52.1037 36.1878 52.272 36.3114 52.3383C36.9134 52.6643 37.8462 52.5411 38.5107 52.5663C39.5485 52.6073 39.518 51.0659 38.5107 50.9757C37.8423 50.9161 37.2429 51.0592 36.6396 51.3349C36.0429 51.6066 36.1665 52.6869 36.8296 52.7889C38.0828 52.9811 39.3399 53.1309 40.6037 53.229L39.8063 52.4337C40.0788 52.1395 40.1027 52.0321 39.8768 52.1116L39.4874 52.1845C39.1844 52.2402 38.8814 52.2972 38.5785 52.3529C38.0589 52.4496 37.5393 52.545 37.0197 52.6418C35.942 52.8419 34.8656 53.0421 33.7759 53.1627C31.5686 53.4066 29.3454 53.4212 27.1328 53.225V54.8155C27.9275 54.7135 28.7221 54.6127 29.5168 54.5107C30.5042 54.3848 30.5653 52.8552 29.5168 52.9201C28.2039 53.001 26.8896 52.944 25.5979 52.6922C24.3063 52.4403 23.1076 51.8823 21.8053 51.9791C20.9349 52.044 20.6904 53.2833 21.5927 53.5418C22.6691 53.8493 23.7601 54.0773 24.8697 54.2297C25.8531 54.3636 26.3235 52.9228 25.2936 52.6961C24.2637 52.4695 23.2737 52.2508 22.2651 52.0281C21.2458 51.8028 20.8977 53.1945 21.8412 53.5617C22.4697 53.8069 23.1142 53.8188 23.7627 53.6518C24.3195 53.5086 24.568 52.72 24.1149 52.3224C23.1594 51.4834 21.6099 51.5364 20.406 51.3628C19.4027 51.217 18.9681 52.7492 19.9821 52.8963L19.9807 52.8857Z" fill="#4A2A13"/>
<path d="M6.02676 55.7595C9.90045 55.6707 14.0133 54.8291 17.5588 53.2584C19.1561 52.5506 20.4943 51.4518 21.8112 50.3212C23.1135 49.2026 24.3879 48.0349 25.5706 46.7903C25.8457 46.5013 26.1926 46.1832 26.3759 45.8254C26.5965 45.3946 26.4278 45.0341 26.2444 44.6351C25.7381 43.5324 25.16 42.4627 24.6484 41.3613C23.1109 38.0503 21.693 34.4544 21.9056 30.7458C22.1886 25.798 23.4338 20.3133 26.6112 16.3701H25.4829C25.5308 16.4271 25.7022 16.6485 25.5374 16.4337C25.7022 16.6471 25.8603 16.8658 26.0132 17.0872C26.5354 17.8414 27.0058 18.6313 27.4311 19.4425C28.7786 22.0152 29.6676 24.8662 29.9134 27.7636C30.3905 33.3861 28.6244 38.9768 25.6451 43.702C25.4125 44.0705 25.0311 44.5251 25.0298 44.9837C25.0298 45.7697 25.7766 45.8625 26.3627 45.7366C27.7434 45.4383 29.0975 44.8034 30.3387 44.1513C32.522 43.0048 34.5326 41.4978 36.2509 39.731C38.6801 37.2312 40.3757 34.2516 41.7126 31.056C42.7837 28.4939 43.7378 25.6575 43.6514 22.8422C43.6262 22.0112 43.5425 20.9469 43.0641 20.2205C42.8156 19.8428 42.377 19.7367 41.973 19.9356C39.8402 20.9853 37.7578 22.1676 35.7632 23.4572C34.328 24.3851 32.8901 25.3831 31.6702 26.5866C31.1852 27.0651 30.6908 27.6045 30.3719 28.2116C30.0344 28.8531 29.9892 29.647 29.9413 30.3575C29.8403 31.8499 29.8948 33.3649 30.0065 34.856C30.0702 35.7043 31.3526 35.9906 31.5732 35.0681C32.4516 31.3887 35.8921 28.3269 39.3007 26.7629C38.9007 26.5336 38.5007 26.3056 38.1007 26.0763C38.1073 26.1863 38.1007 26.295 38.094 26.4064C38.0927 26.4355 38.0714 26.6158 38.0834 26.5217C38.094 26.4395 38.0608 26.6595 38.0515 26.7006C37.9718 27.1062 37.8734 27.5065 37.7578 27.9041C37.4535 28.9472 37.0655 29.9678 36.619 30.9579C35.5452 33.3331 34.1672 35.6884 32.2337 37.4711C31.2609 38.3684 30.1287 39.0683 28.8184 39.3294C27.8125 39.5295 28.239 41.0631 29.2423 40.8629C31.9865 40.3155 34.0795 38.1391 35.6303 35.9455C37.1705 33.7678 38.3651 31.284 39.1691 28.7431C39.4322 27.912 39.7445 26.9591 39.6967 26.075C39.6621 25.4375 39.0548 25.1326 38.4967 25.3884C35.7379 26.6542 33.3406 28.6106 31.6702 31.1514C30.9805 32.2012 30.3307 33.4113 30.037 34.644L31.6038 34.856C31.5161 33.687 31.4775 32.5087 31.4988 31.337C31.5121 30.6199 31.4948 29.826 31.7154 29.1341C31.8483 28.7166 32.2762 28.2487 32.6244 27.8895C34.817 25.6243 37.7605 24.0073 40.5033 22.5043C41.2555 22.092 42.0116 21.6878 42.781 21.31C42.4169 21.2146 42.0541 21.1192 41.69 21.0251C41.698 21.037 41.7485 21.1218 41.7445 21.1231C41.7525 21.1178 41.8907 21.4956 41.7338 21.086C41.7578 21.1497 41.7857 21.212 41.8056 21.2769C41.8601 21.4625 41.9159 21.644 41.9544 21.8336C42.0315 22.21 42.0169 22.1278 42.0435 22.5069C42.1897 24.5985 41.6182 26.7099 40.9352 28.6662C39.8468 31.785 38.3518 34.8627 36.2123 37.4048C34.5765 39.3479 32.6217 41.0008 30.4277 42.2838C29.1148 43.0512 27.7606 43.7007 26.2989 44.1102C26.1474 44.1527 25.9906 44.1818 25.8391 44.2242C25.6557 44.2759 25.8231 44.1964 25.8896 44.2216C26.0956 44.2971 26.8437 45.0182 26.558 45.27C26.8517 45.0115 27.0803 44.4177 27.2876 44.0837C30.227 39.3254 31.9466 33.5876 31.5267 27.973C31.1931 23.5089 29.5347 18.7175 26.6125 15.2448C26.356 14.94 25.7381 14.9307 25.4843 15.2448C22.7109 18.687 21.3009 23.0861 20.6617 27.4044C20.3601 29.4363 20.1329 31.5119 20.4172 33.5584C20.679 35.4445 21.2544 37.2736 21.9401 39.0471C22.5434 40.6084 23.2385 42.1327 23.9773 43.6344C24.2232 44.1341 24.477 44.6298 24.7202 45.1308C24.7893 45.2726 24.8477 45.4224 24.9235 45.5616C24.8451 45.4171 24.9261 45.4675 24.9128 45.547C24.9049 45.5947 24.9248 44.8525 24.9713 45.0765C24.9913 45.1706 24.9753 45.0765 24.9354 45.1255C24.8677 45.209 24.7946 45.2886 24.7228 45.3681C24.5222 45.5894 24.3135 45.8042 24.1049 46.0175C23.5188 46.6127 22.9142 47.1906 22.3003 47.7565C21.0152 48.9441 19.689 50.1927 18.2033 51.1311C16.4984 52.21 14.4479 52.776 12.5024 53.2452C10.3842 53.7555 8.20878 54.1213 6.02676 54.1703C5.00219 54.1942 4.9982 55.7847 6.02676 55.7608V55.7595Z" fill="#4A2A13"/>
<path d="M37.7792 28.619C38.0888 28.2824 38.3851 27.9364 38.6695 27.5786C39.0084 27.1518 38.9659 26.3804 38.3174 26.2491C37.8642 26.1577 37.4735 26.2014 37.1081 26.5182C36.8064 26.7806 36.748 27.2074 36.4769 27.4553C36.2058 27.7031 35.7101 27.7257 35.3898 27.9046C35.0523 28.0928 34.7865 28.3553 34.5526 28.6588C34.0968 29.2513 33.8045 29.8914 33.253 30.4137C32.6975 30.9385 32.1354 31.4753 32.0052 32.264C31.8723 33.0685 33.0776 33.7763 33.463 32.8763C33.8058 32.0758 34.15 31.2739 34.4928 30.4733L33.0351 29.861C32.4942 31.5125 31.2344 32.7849 30.3866 34.2733C29.4949 35.8374 29.0165 37.5816 28.9142 39.3736C28.8929 39.7381 29.18 40.0284 29.4989 40.1411C30.5899 40.5228 31.4338 39.1496 30.3999 38.4896C30.2657 38.984 30.1315 39.477 29.9972 39.9714C31.2544 39.9926 32.061 38.9137 32.849 38.088C33.8045 37.0873 34.7985 36.0985 35.657 35.0116C36.5154 33.9248 36.8769 32.8193 37.3327 31.5668C37.7885 30.3143 38.4317 29.0471 39.015 27.8065C39.4562 26.8708 38.2456 26.1815 37.6383 27.0033C36.8822 28.0265 36.2018 29.1015 35.6158 30.2308C35.0869 31.2487 34.6988 32.3528 34.045 33.3005C32.8092 35.0938 30.9049 36.3052 29.6477 38.0959C29.1521 38.801 30.0876 39.5049 30.7388 39.1841C31.9799 38.5731 32.8557 37.5379 33.354 36.2642C33.5547 35.7525 33.051 35.2833 32.5846 35.2568C31.1574 35.176 29.576 36.0242 29.584 37.6055H31.1786C31.0843 36.6459 31.2477 35.7658 31.7288 34.9241C31.2424 34.8605 30.7574 34.7969 30.271 34.7346C30.5062 35.7857 30.5793 36.8367 30.5182 37.9117L32.0849 37.6996C31.9321 36.6247 31.1348 34.9957 32.1806 34.1541C31.7633 34.101 31.3461 34.0467 30.9288 33.9937C31.3514 34.7929 31.6105 35.6279 31.7474 36.5213L33.2849 36.0985C33.1374 35.7433 32.9699 35.445 32.7507 35.1296C32.6271 34.952 32.3706 34.3661 32.2524 34.3741L31.4829 33.7909C31.6238 34.3091 31.766 34.8261 31.9068 35.3443C32.1354 36.1846 33.5467 36.0494 33.4736 35.1322C33.4045 34.2694 33.3341 33.4078 33.265 32.545C32.7693 32.6788 32.2749 32.8127 31.7793 32.9466C32.0437 33.4224 32.2457 33.8982 32.4052 34.4191C32.6191 35.1216 33.4643 35.1455 33.863 34.6087C34.2988 34.0228 34.2802 33.3071 33.9547 32.6775C33.5892 31.9697 32.4543 32.309 32.469 33.0791C32.4836 33.8492 32.4969 34.5822 32.5102 35.3324H34.1048C34.0131 34.3052 34.0277 33.2793 34.1938 32.2587L32.7361 32.4482C32.9434 32.9254 33.0085 33.4622 32.9288 33.9764L34.4955 34.1885C34.4277 33.3323 34.36 32.476 34.2922 31.6185L32.9314 32.1805C33.3739 32.602 33.5839 33.0659 33.6663 33.6663L35.2038 33.2435C35.1001 32.5052 34.9952 31.7656 34.8915 31.0273L33.4337 31.6397C33.6782 32.1328 33.9228 32.6258 34.1673 33.1189C34.5473 33.8837 35.5958 33.437 35.653 32.7173C35.7194 31.8836 35.637 31.0618 35.4244 30.252L34.0915 31.026C34.4051 31.3004 34.6244 31.584 34.8131 31.9565C35.2118 32.7491 36.5991 32.1911 36.2709 31.3441C36.0928 30.8829 36.0211 30.464 36.0503 29.9696L34.4835 30.1817C34.6098 30.5038 34.7374 30.8246 34.8636 31.1466C35.1161 31.7868 36.2576 32.0095 36.4011 31.1466C36.5141 30.4627 36.4955 29.8185 36.2616 29.1611C35.8177 29.4196 35.3726 29.6767 34.9287 29.9352C35.1161 30.1632 35.257 30.411 35.3885 30.6735C35.6822 31.2606 36.7267 31.1506 36.8463 30.4839C36.8848 30.2665 36.9712 29.9498 36.8809 29.7324C36.9008 29.4978 36.8503 29.4898 36.7267 29.7072C36.7945 29.6727 36.8636 29.6396 36.9327 29.6065C37.338 29.4249 37.5772 29.0524 37.5679 28.6137C37.548 27.5918 35.9533 27.5878 35.9732 28.6137C36.2855 28.2254 36.3147 28.1101 36.0596 28.2651C35.9679 28.3036 35.8815 28.3526 35.8018 28.4123C35.6503 28.5223 35.5081 28.6601 35.4178 28.8258C35.1905 29.246 35.3845 29.6317 35.3075 30.0598C35.7938 29.9962 36.2789 29.9325 36.7652 29.8702C36.5712 29.4819 36.332 29.1452 36.0569 28.8099C35.5546 28.2002 34.4649 28.8536 34.7241 29.5839C34.8583 29.9617 34.9301 30.3235 34.8636 30.7238H36.4011C36.2749 30.4017 36.1473 30.081 36.0211 29.7589C35.6981 28.9398 34.5088 29.0339 34.4543 29.971C34.4184 30.5913 34.5075 31.189 34.732 31.7683L36.1898 31.1559C35.948 30.6761 35.6237 30.2573 35.2197 29.9034C34.635 29.3918 33.6782 29.8769 33.8869 30.6774C34.0649 31.3561 34.1128 32.0214 34.0583 32.7199C34.554 32.5861 35.0483 32.4522 35.544 32.3183C35.2995 31.8253 35.055 31.3322 34.8105 30.8391C34.3732 29.9577 33.2384 30.6377 33.3527 31.4515C33.4563 32.1898 33.5613 32.9293 33.665 33.6676C33.7248 34.0957 34.2683 34.3224 34.6457 34.223C35.1081 34.101 35.2596 33.6689 35.2025 33.2448C35.0869 32.3952 34.6776 31.6463 34.0583 31.0565C33.5932 30.6138 32.6404 30.9001 32.6975 31.6185C32.7653 32.4747 32.8331 33.331 32.9008 34.1885C32.9686 35.0461 34.3174 35.3469 34.4676 34.4006C34.6178 33.4542 34.5088 32.5556 34.1141 31.6476C33.851 31.0406 32.7626 31.1864 32.6563 31.8372C32.4676 33.0022 32.4052 34.1567 32.5115 35.3337C32.6018 36.3357 34.1247 36.3742 34.1061 35.3337C34.0929 34.5822 34.0782 33.8306 34.0649 33.0804C33.5693 33.2143 33.0749 33.3482 32.5793 33.4821C32.651 33.6212 32.5753 33.6888 32.4876 33.8068C32.9739 33.8704 33.459 33.934 33.9453 33.9963C33.7487 33.3508 33.4869 32.7332 33.1587 32.1447C32.7905 31.482 31.6078 31.7457 31.673 32.5463C31.7421 33.4092 31.8125 34.2707 31.8816 35.1336L33.4483 34.9215C33.3075 34.4032 33.1653 33.8863 33.0244 33.3681C32.9381 33.05 32.6005 32.761 32.255 32.7849C31.4949 32.8366 30.9075 33.3296 30.7773 34.0944C30.6019 35.1283 31.3939 35.6704 31.75 36.5226C32.1447 37.4677 33.4444 37.123 33.2876 36.0998C33.1307 35.0766 32.7932 34.1103 32.3082 33.1931C32.0477 32.7 31.4338 32.7279 31.0564 33.0327C29.4351 34.3383 30.3122 36.4444 30.5501 38.1264C30.6816 39.0555 32.0676 38.76 32.1168 37.9143C32.1872 36.7002 32.0783 35.5007 31.8138 34.3144C31.6637 33.6398 30.6856 33.5483 30.356 34.1249C29.7461 35.1919 29.467 36.3834 29.5879 37.6082C29.6863 38.6062 31.1879 38.6526 31.1826 37.6082C31.1799 36.9295 32.0809 36.8208 32.5886 36.85L31.8191 35.8427C31.4683 36.7373 30.7893 37.3921 29.9361 37.8123L31.0271 38.9005C32.2803 37.1151 34.1845 35.9089 35.4244 34.105C36.0769 33.1547 36.4662 32.0532 36.9951 31.0353C37.5812 29.906 38.2616 28.8311 39.0177 27.8079L37.641 27.0046C37.1333 28.0822 36.6084 29.1532 36.15 30.252C35.7021 31.3229 35.455 32.4986 34.8171 33.4781C34.1779 34.4589 33.3022 35.3019 32.4995 36.1488C32.0969 36.5743 31.6916 36.9971 31.2876 37.4199C30.9527 37.7712 30.5354 38.3902 29.9999 38.3809C29.1813 38.3663 28.9527 39.4505 29.5972 39.8627L29.673 39.9104L29.2783 39.2239L29.3355 39.0091L30.0238 38.6155L29.9255 38.6075L30.5102 39.375C30.6099 37.6294 31.164 35.9805 32.1102 34.5106C33.0032 33.1255 34.0543 31.8756 34.5752 30.2851C34.8503 29.4448 33.4763 28.8364 33.1175 29.6727C32.7746 30.4733 32.4304 31.2752 32.0876 32.0758L33.5454 32.6881C33.6384 32.1195 34.1194 31.7987 34.5128 31.417C34.9447 30.9982 35.2543 30.5131 35.5653 30.0028C35.9307 29.4024 36.2536 29.287 36.8822 29.0365C37.1785 28.9186 37.4563 28.7661 37.6742 28.5289C37.8244 28.3645 38.2469 27.8542 37.8961 27.7827L37.544 26.4533C37.2596 26.8111 36.9632 27.1571 36.6536 27.4937C35.9613 28.2466 37.0855 29.3745 37.7818 28.619H37.7792Z" fill="#4A2A13"/>
<path d="M34.8198 25.2442C34.7015 22.2036 33.2052 19.1604 31.8577 16.4963C30.3893 13.5936 28.6936 10.6908 26.5422 8.23215C26.2777 7.92995 25.6744 7.91537 25.414 8.23215C22.8412 11.3628 20.8067 15.0462 19.3011 18.7893C18.6566 20.3904 18.125 22.0379 17.749 23.7239C17.4167 25.2137 17.0433 26.6677 16.8825 28.1919C16.7217 29.7162 16.6938 31.3359 16.9211 32.8893C17.0885 34.0318 17.4819 35.1372 17.8074 36.2427C18.2194 37.6357 18.6313 39.034 19.1363 40.3979C19.3317 40.9254 19.5337 41.4622 19.8008 41.9593C19.9084 42.1581 20.0307 42.3582 20.1835 42.5252C20.2207 42.565 20.2645 42.5995 20.3017 42.6392C20.5051 42.7956 20.517 42.8049 20.3363 42.6657C20.5356 42.8526 20.4745 42.6074 20.1569 41.9301L20.5237 41.4543C20.4041 41.5179 21.2386 41.3297 21.0512 41.3615C21.022 41.3668 20.7735 41.2488 21.0712 41.3761C20.9077 41.3072 20.7496 41.225 20.5941 41.1415C20.1077 40.8817 19.64 40.5835 19.1868 40.2693C17.7662 39.2832 16.4865 38.0691 15.4101 36.7185C13.87 34.7847 12.9889 32.5897 12.2314 30.261C11.6148 28.3642 11.0408 26.4212 10.7697 24.4409C10.5903 23.1235 10.6235 21.806 10.6594 20.4819L9.64942 21.2493C11.2095 21.7384 12.6713 22.6529 14.0414 23.5251C14.7165 23.9545 15.3862 24.4012 16.0201 24.8903C16.2766 25.0878 16.529 25.2945 16.7629 25.5172C16.8453 25.5967 16.929 25.6763 17.0048 25.7624C17.1324 25.9109 16.9862 25.7054 17.0779 25.8737C17.5682 26.7737 18.945 25.9718 18.4546 25.0705C18.1848 24.5735 17.6838 24.1904 17.2493 23.8458C16.5251 23.2706 15.7649 22.7417 14.9875 22.242C13.458 21.2586 11.8208 20.2618 10.0733 19.7144C9.56437 19.5554 9.078 19.9822 9.06338 20.4819C9.02352 21.9226 9.01687 23.3382 9.21753 24.771C9.57102 27.3012 10.3551 29.7639 11.1923 32.1709C12.6633 36.4044 15.5709 40.101 19.4898 42.3516C19.8393 42.5531 20.2579 42.8208 20.6566 42.907C21.5695 43.1058 21.9469 42.1899 21.4472 41.5312L21.2864 41.4066C21.4021 41.5007 21.4233 41.5139 21.3516 41.4477C21.2373 41.2966 21.3914 41.5444 21.3316 41.4211C21.2585 41.27 21.1602 41.1282 21.0858 40.9771C20.8825 40.5636 20.7257 40.1275 20.5702 39.6941C20.1715 38.5781 19.8273 37.4435 19.4885 36.3076C19.1749 35.2579 18.8001 34.2002 18.5715 33.1279C18.3004 31.8541 18.3124 30.5115 18.3908 29.2165C18.4785 27.7718 18.723 26.3628 19.0991 24.9671C19.4938 23.4999 19.8074 22.0353 20.3164 20.5972C21.3144 17.7766 22.6937 15.0926 24.2937 12.5663C24.8199 11.7353 25.3714 10.9201 25.9535 10.1289C26.0465 10.0016 26.1409 9.87702 26.2352 9.7511C26.2684 9.70736 26.3017 9.66362 26.3349 9.62121C26.4452 9.47674 26.2352 9.7458 26.3575 9.59072C26.4186 9.51385 26.4784 9.43565 26.5409 9.3601H25.4126C27.4312 11.6664 29.0073 14.418 30.3946 17.1351C31.1321 18.5799 31.8112 20.0564 32.3574 21.5846C32.776 22.7563 33.176 23.9943 33.2238 25.2468C33.2637 26.2674 34.8583 26.2727 34.8185 25.2468L34.8198 25.2442Z" fill="#4A2A13"/>
<path d="M18.1795 28.3146C16.6605 27.0276 15.0486 25.7233 13.2799 24.7849C12.6367 24.443 11.9802 25.0036 12.1091 25.6836C12.3975 27.2025 12.9011 28.7003 13.4646 30.1357C14.6446 33.1405 16.2632 35.9875 18.5289 38.3137C19.2452 39.0493 20.3721 37.924 19.6572 37.1884C16.5795 34.0285 14.4692 29.5883 13.648 25.2608L12.4772 26.1594C14.129 27.0355 15.6373 28.239 17.0552 29.4399C17.8326 30.0986 18.9661 28.9799 18.1834 28.3146H18.1795Z" fill="#4A2A13"/>
<path d="M25.2526 21.1044C24.3064 22.9733 23.7177 25.0847 23.3722 27.1405C22.6612 31.3713 23.1396 35.7015 25.2526 39.4843C25.5316 39.9853 26.3595 40.0198 26.6293 39.4843C29.3947 34.001 29.8665 26.4884 26.6293 21.1044C26.1017 20.227 24.7223 21.0262 25.2526 21.9077C26.818 24.5121 27.3283 27.5779 27.2206 30.5813C27.121 33.3541 26.507 36.1946 25.2526 38.6824H26.6293C24.6785 35.1886 24.2533 31.1234 24.9695 27.2227C25.3031 25.4055 25.8678 23.412 26.6293 21.909C27.0904 20.9971 25.715 20.1912 25.2526 21.1058V21.1044Z" fill="#4A2A13"/>
<path d="M29.5345 40.2582C29.7072 40.1708 29.872 40.0435 29.9983 39.8951C30.0966 39.7957 30.1657 39.679 30.2029 39.5438C30.2414 39.4033 30.2414 39.2615 30.2029 39.121C30.1285 38.8493 29.9145 38.6452 29.6461 38.5656C29.4747 38.514 29.2501 38.51 29.0813 38.5736C28.9245 38.6332 28.8142 38.6916 28.688 38.8029C28.676 38.8135 28.6654 38.8241 28.6534 38.8374C28.6043 38.893 28.5484 38.9593 28.5112 39.0256C28.4089 39.2072 28.3744 39.4365 28.4315 39.6379C28.482 39.8222 28.6255 40.0223 28.7983 40.1138C28.983 40.2118 29.2076 40.2596 29.4122 40.1933C29.6169 40.127 29.7856 40.0104 29.8893 39.8275C29.8946 39.8182 29.8999 39.8089 29.9066 39.7996L29.7816 39.96C29.7923 39.9468 29.8029 39.9361 29.8162 39.9255L29.6554 40.0501C29.6687 40.0409 29.682 40.0329 29.6966 40.025L29.5066 40.1045C29.5265 40.0965 29.5464 40.0912 29.569 40.0872L29.3564 40.1151C29.3737 40.1151 29.3883 40.1151 29.4042 40.1151L29.1916 40.0872C29.2023 40.0886 29.2129 40.0912 29.2235 40.0952L28.8714 38.7658C28.8275 38.8175 28.7783 38.8652 28.7239 38.9076L28.8846 38.783C28.8355 38.8201 28.7837 38.8519 28.7292 38.8798C28.5564 38.9673 28.4129 39.174 28.3624 39.3556C28.3292 39.4616 28.3239 39.5677 28.3478 39.6724C28.3531 39.7784 28.3837 39.8765 28.4421 39.968C28.5524 40.1376 28.7159 40.2874 28.9192 40.3338L29.1318 40.3616C29.2753 40.3616 29.4096 40.3245 29.5345 40.2529V40.2582Z" fill="#4A2A13"/>
<path d="M26.8016 44.1717C26.5637 44.3307 26.3338 44.4129 26.0707 44.5136C25.9033 44.5773 25.7664 44.6515 25.6269 44.7642C25.5764 44.8039 25.5312 44.8516 25.4807 44.8901C25.397 44.955 25.4887 44.8901 25.49 44.8901C24.6608 45.0968 25.0116 46.3746 25.8435 46.1678C26.1172 46.1002 26.3059 45.859 26.5053 45.7609C26.8295 45.6018 27.167 45.521 27.4727 45.3155C27.7783 45.1101 27.9006 44.7324 27.7106 44.4089C27.5378 44.1147 27.1006 43.9702 26.8016 44.1717Z" fill="#4A2A13"/>
<path d="M13.1857 26.6639C13.1631 26.8362 13.1857 26.97 13.2163 27.141C13.6216 26.9714 14.0256 26.8004 14.4309 26.6307C14.298 26.4584 14.1651 26.2848 14.0322 26.1125C13.684 26.3802 13.3359 26.648 12.989 26.9157C13.5751 27.4578 14.3724 27.5599 14.981 28.0476C15.5897 28.5354 16.0468 29.2286 16.775 29.6276L17.4461 28.4837C16.8866 28.2345 16.3245 27.9893 15.7664 27.7348C15.377 27.5572 14.9651 27.3942 14.7418 27.0085C14.492 27.3332 14.2422 27.6579 13.991 27.9814C14.2528 28.049 14.5677 28.1006 14.7392 28.3299C14.9106 28.5592 14.9133 28.8866 15.1352 29.1173C15.5804 29.5785 16.3352 29.7336 16.8534 30.1259L17.365 28.9145C16.8175 28.7263 16.3126 28.4413 15.7757 28.2279C15.4953 28.1166 15.2109 28.0185 14.9212 27.9389C14.7764 27.8992 14.6302 27.8634 14.4827 27.8316C14.201 27.707 14.1518 27.8568 14.3379 28.2822H13.3983C13.6787 28.5341 13.7 28.9396 13.8103 29.2843C13.9206 29.6289 14.0614 29.947 14.2116 30.2664C14.5837 31.055 15.0794 31.7907 15.3558 32.6217C15.587 33.3176 15.7 34.0201 16.185 34.6006C16.4415 34.9081 16.67 35.1652 16.8415 35.5324C17.0129 35.8995 17.1777 36.2203 17.4328 36.5397C17.7903 36.9877 18.5996 36.6153 18.5677 36.0705C18.468 34.4296 18.0375 32.8484 17.7571 31.2353C17.6587 30.6733 17.7757 29.6329 17.2933 29.2299C17.0541 29.0311 16.6754 28.9648 16.3896 28.8667C15.9392 28.713 15.49 28.5579 15.0395 28.4042C14.3658 28.1735 13.9897 29.051 14.3937 29.5122C14.5438 29.6832 14.5186 30.0212 14.5797 30.2293C14.6541 30.4825 14.7777 30.6879 14.9279 30.9013C15.203 31.2923 15.4103 31.6661 15.5618 32.126C15.8661 33.0538 16.0893 33.9405 16.7126 34.7199C17.1298 35.2421 18.0255 34.6775 17.8235 34.0757C17.5033 33.1201 17.4913 32.2599 17.4421 31.2658C17.4049 30.5076 17.3411 29.5666 16.5916 29.1769C15.983 28.8601 15.1033 28.7103 14.8893 29.5533C14.6913 30.334 15.3784 30.8894 15.5684 31.5746C15.7584 32.2599 16.8933 32.1578 16.8734 31.3983C16.8601 30.8986 16.8308 30.4029 16.783 29.9046C16.7405 29.4486 16.395 29.1849 15.9418 29.2657C15.1724 29.4022 15.0913 30.1431 15.187 30.7833C15.292 31.4845 15.3319 32.1777 15.7358 32.7861C16.2063 33.4939 17.3584 32.8311 16.8827 32.1167C16.6886 31.8251 16.6222 31.5282 16.5717 31.1876C16.5531 31.0577 16.5398 30.9278 16.5212 30.7979C16.5106 30.7065 16.4973 30.6163 16.4827 30.5262C16.488 30.3764 16.4255 30.383 16.294 30.5434L15.4528 29.9046C15.4993 30.4016 15.5299 30.8986 15.5431 31.3983L16.8481 31.2221C16.7777 30.9662 16.6727 30.729 16.5398 30.4997C16.4587 30.3592 16.2621 29.8608 16.1013 30.0292L15.6309 30.2227C15.7451 30.2373 16.084 30.4798 15.9511 30.2956C16.0242 30.3976 16.0441 30.6256 16.0641 30.7475C16.1398 31.1889 16.1172 31.6462 16.1239 32.0929C16.1385 32.9107 16.2794 33.6556 16.5398 34.4296L17.6508 33.7855C17.0421 33.0233 16.9637 31.9431 16.573 31.0696C16.3843 30.6481 16.0202 30.3022 15.8594 29.8794C15.6734 29.3916 15.6986 28.9953 15.3319 28.5778L14.686 29.6859C15.2827 29.89 16.0003 30.0292 16.5558 30.3261L16.2501 29.9298C16.3803 30.3632 16.3631 30.9013 16.4362 31.3506C16.5199 31.8702 16.6262 32.3858 16.7338 32.9001C16.9531 33.9525 17.175 34.9982 17.2401 36.0732L18.375 35.604C18.1159 35.2792 18.0215 34.8564 17.8116 34.5038C17.6401 34.2162 17.3903 34.0081 17.1923 33.7444C16.7259 33.1241 16.6475 32.1989 16.3285 31.4911C15.9883 30.7369 15.5272 30.0384 15.2189 29.2697C14.9518 28.603 14.904 27.8528 14.3418 27.3465C14.0588 27.0907 13.6894 27.1052 13.4023 27.3465C12.6422 27.984 13.304 28.8827 14.0455 29.0907C15.0834 29.381 16.0043 29.8462 17.0169 30.1948C17.789 30.4613 18.08 29.3996 17.5285 28.9834C17.2149 28.7461 16.8906 28.5513 16.5305 28.3922C16.3989 28.3339 16.1797 28.2809 16.0853 28.1603C15.9976 28.0463 15.9617 27.7945 15.89 27.6632C15.5764 27.0946 14.9425 26.8587 14.3485 26.7063C13.789 26.5631 13.3053 27.1728 13.5977 27.6792C14.2262 28.7687 15.6986 29.1477 16.7777 29.6289C17.5405 29.9695 18.2142 28.9039 17.4488 28.485C16.7883 28.1232 16.375 27.4671 15.793 27.0045C15.2109 26.5419 14.4495 26.4611 13.9312 25.9799C13.4129 25.4988 12.4083 26.1589 12.888 26.7832C13.0209 26.9555 13.1538 27.1291 13.2867 27.3014C13.7425 27.8939 14.6382 27.5612 14.5013 26.7911L14.5173 26.6652C14.6249 25.8209 13.2947 25.8288 13.1884 26.6652L13.1857 26.6639Z" fill="#4A2A13"/>
<path d="M31.6399 37.9793C31.628 37.9886 31.7981 37.8613 31.6399 37.9793C31.5243 38.0641 31.4114 38.1503 31.2944 38.2338C30.9662 38.471 30.6326 38.7003 30.2911 38.919C29.7317 39.2769 28.8745 39.8866 28.2566 39.8243C27.236 39.7209 27.244 41.3128 28.2566 41.4148C29.1988 41.5103 30.2154 40.8462 30.9742 40.3704C31.5934 39.982 32.1901 39.5552 32.7668 39.1059C33.5748 38.4763 32.4386 37.3577 31.6386 37.9806L31.6399 37.9793Z" fill="#4A2A13"/>
<path d="M25.2077 22.6808C24.6269 24.6636 24.0728 26.6823 24.1765 28.7672C24.227 29.7838 25.7791 29.797 25.7711 28.7672C25.7671 28.2211 25.6847 27.6975 25.504 27.1819C25.2715 26.5166 24.102 26.339 23.9665 27.1819C23.7632 28.4411 24.2083 29.7122 23.9572 30.9502H25.4947C25.3764 30.3816 25.1851 29.854 24.9419 29.3265C24.5977 28.579 23.4642 28.9898 23.4562 29.7281C23.4482 30.4664 23.4801 31.1768 23.6383 31.8833C23.7964 32.5897 23.9891 33.1703 24.0276 33.8913C24.11 35.401 24.6748 36.7556 25.2821 38.1208C25.5239 38.6656 26.401 38.6139 26.6588 38.1208C26.9645 37.5376 27.0282 36.8961 27.3392 36.3142C27.6701 35.6926 27.8734 35.0524 27.9903 34.3592C28.2335 32.9198 28.4262 31.4565 28.4634 29.9972C28.502 28.5153 28.3824 27.0322 28.1339 25.5715C27.9319 24.3786 27.807 22.6264 26.4794 22.1612C26.0993 22.0273 25.5718 22.3136 25.4987 22.7165C25.3339 23.6311 25.8482 24.433 26.0741 25.3025C26.3146 26.2303 26.3983 27.17 26.3704 28.1257L27.7312 27.5637C26.9286 26.6239 26.7173 25.3436 26.611 24.1507L25.0442 24.3627C25.4043 25.4774 26.2708 26.5073 26.3385 27.6962C26.7917 27.5093 27.2462 27.3211 27.6993 27.1342C27.1 26.6041 26.5512 26.0262 26.0781 25.3794C25.5279 24.6265 24.4954 25.0944 24.6203 25.9917C24.817 27.398 25.9279 28.6174 26.7505 29.7162L27.6515 28.5485C26.8515 28.2595 26.3199 27.3437 25.5837 26.9116C24.9047 26.5126 24.0741 27.3158 24.4927 27.9997C25.1877 29.1356 26.0077 30.1854 26.9432 31.1331C27.2648 30.7169 27.5877 30.3007 27.9093 29.8845C27.0375 29.3915 26.2429 28.8149 25.5107 28.131C24.8236 27.4881 23.8854 28.2913 24.2588 29.0946C24.8343 30.3325 25.8123 31.3359 27.0296 31.9588L26.6628 31.0602C26.9445 30.974 26.9817 30.872 26.7744 30.7553C26.6827 30.6586 26.5924 30.5618 26.502 30.4624C26.3013 30.2464 26.1033 30.029 25.904 29.8129L24.7758 30.9382C25.4283 31.5837 25.9146 32.3127 26.2801 33.1531L27.3711 32.0649C26.6894 31.6553 26.2123 31.0337 25.7485 30.4014C25.1359 29.5651 23.9678 30.2649 24.3718 31.2047C24.615 31.7693 24.914 32.2889 25.2861 32.778C25.5811 33.165 26.0794 33.5388 26.1977 34.0212L27.3684 33.1226C26.8927 32.8111 26.5007 32.4188 26.2096 31.9283C25.9425 31.4777 25.7525 31.0522 25.2635 30.7991C24.5645 30.4372 23.7698 31.1728 24.1725 31.8873C24.7917 32.9847 25.411 34.0822 26.0302 35.1796L27.2821 34.2161C26.7532 33.7031 26.2243 33.1888 25.6954 32.6759C25.0894 32.0874 24.2309 32.6971 24.3625 33.45C24.5778 34.6773 24.9618 35.8397 25.4814 36.9716C25.8575 37.7881 27.2236 37.2102 26.9392 36.3593C26.7664 35.8437 26.6628 35.3427 26.6375 34.7992C26.2376 35.0285 25.8376 35.2565 25.4376 35.4858C25.5186 35.5243 25.5784 35.5839 25.6156 35.6661C26.1631 36.5409 27.4455 35.7761 26.9924 34.8629L26.8316 34.5395C26.3758 33.6223 25.0004 34.4268 25.4548 35.3427L25.6156 35.6661C26.0741 35.3983 26.5339 35.1306 26.9924 34.8629C26.793 34.5448 26.5605 34.3128 26.2415 34.1113C25.7419 33.7959 25.015 34.2028 25.0416 34.7979C25.0721 35.4765 25.1851 36.1366 25.4004 36.7808L26.8581 36.1684C26.397 35.1664 26.09 34.1127 25.9 33.0271L24.5671 33.8012C25.096 34.3141 25.6249 34.8284 26.1538 35.3414C26.8023 35.9709 27.8535 35.1704 27.4056 34.3778C26.7864 33.2803 26.1671 32.1828 25.5479 31.0854L24.4568 32.1736C24.6522 32.2743 24.7226 32.55 24.8303 32.7316C24.9711 32.9688 25.1346 33.1941 25.31 33.4075C25.6675 33.8396 26.0914 34.1909 26.5605 34.497C27.1664 34.8934 27.888 34.2412 27.7312 33.5984C27.5877 33.0112 27.2156 32.6056 26.8276 32.1643C26.3651 31.6381 26.0196 31.0443 25.7445 30.4028C25.2861 30.6705 24.8263 30.9382 24.3678 31.206C24.9977 32.0649 25.6342 32.8827 26.5618 33.4393C27.3086 33.8873 27.9478 33.0285 27.6528 32.3512C27.2355 31.3942 26.6415 30.5486 25.8987 29.8143C25.1665 29.0906 24.0781 30.1867 24.7705 30.9396C25.2781 31.491 25.807 32.273 26.5764 32.4651C27.2701 32.6375 28.0741 32.2093 28.195 31.4856C28.2508 31.1503 28.1618 30.758 27.8282 30.587C26.8262 30.0741 26.1033 29.3119 25.6303 28.294L24.3784 29.2576C25.205 30.0303 26.1126 30.7023 27.0987 31.2603C27.884 31.7043 28.7066 30.6612 28.0648 30.0118C27.2196 29.1555 26.4914 28.2264 25.8628 27.2005C25.4987 27.5637 25.1359 27.9255 24.7718 28.2887C25.6728 28.8175 26.1964 29.7162 27.2196 30.086C27.8415 30.3113 28.5325 29.4683 28.1206 28.9183C27.3844 27.9348 26.3266 26.8294 26.1512 25.5742L24.6934 26.1865C25.2475 26.9447 25.8588 27.6392 26.5631 28.2622C27.0442 28.6876 27.9664 28.4318 27.9239 27.7002C27.8428 26.2952 26.991 25.2402 26.5724 23.9439C26.3106 23.1354 24.9233 23.2189 25.0057 24.156C25.1519 25.8088 25.4881 27.3993 26.5924 28.6929C27.0628 29.2443 27.9345 28.7725 27.9531 28.131C27.9784 27.2734 27.9119 26.4185 27.7538 25.5742C27.682 25.1885 27.5877 24.8054 27.4721 24.4303C27.3751 24.1162 26.9684 23.4575 27.0243 23.1433L26.0435 23.6987C26.2535 23.7716 26.4023 25.0506 26.4462 25.264C26.5658 25.8446 26.6628 26.4304 26.7292 27.0189C26.8688 28.2556 26.8993 29.5054 26.8249 30.7474C26.7545 31.9177 26.6163 33.1133 26.3824 34.2638C26.2734 34.8019 26.0834 35.2353 25.8336 35.7231C25.5705 36.236 25.5306 36.8272 25.2701 37.3242H26.6468C26.0781 36.0452 25.6754 34.8589 25.593 33.4592C25.5585 32.8721 25.4097 32.3604 25.2489 31.7998C25.0535 31.1225 25.0309 30.4333 25.0389 29.7334L23.5532 30.135C23.7366 30.534 23.8562 30.9488 23.9452 31.3783C24.102 32.1338 25.3286 32.1391 25.4827 31.3783C25.7392 30.1098 25.2887 28.8653 25.492 27.6101H23.9545C24.0914 28.0011 24.1618 28.3589 24.1645 28.7725H25.7592C25.6621 26.8214 26.1897 24.9632 26.7332 23.1089C27.0216 22.1241 25.4827 21.7039 25.1957 22.6861L25.2077 22.6808Z" fill="#4A2A13"/>
<path d="M18.9872 52.5169C19.0816 52.4718 19.1772 52.4321 19.2729 52.3897C19.0244 52.497 19.3832 52.3459 19.459 52.3154C19.6211 52.2518 19.7832 52.1908 19.9467 52.1312C20.9447 51.768 21.9692 51.4764 23.0044 51.2379C26.4502 50.4466 30.0701 50.2888 33.5704 50.7952C36.2441 51.1822 38.862 51.943 41.3337 53.0312C42.2639 53.4407 43.0759 52.0702 42.139 51.658C35.1664 48.5883 27.0841 47.9759 19.8337 50.4877C19.2756 50.6812 18.7161 50.8879 18.1832 51.1424C17.2583 51.5838 18.0663 52.9556 18.9885 52.5156L18.9872 52.5169Z" fill="#4A2A13"/>
<path d="M41.3295 51.6973C41.2351 51.7424 41.1395 51.7835 41.0438 51.8245C40.9295 51.8736 41.2272 51.7503 41.0411 51.8245C40.98 51.8497 40.9189 51.8736 40.8577 51.8988C40.6969 51.9624 40.5335 52.0247 40.3714 52.0843C39.3734 52.4502 38.3501 52.7444 37.3149 52.9843C33.8691 53.7835 30.2532 53.9505 26.7503 53.4548C24.0766 53.0771 21.4547 52.3203 18.9817 51.2387C18.0501 50.8318 17.2382 52.2023 18.1764 52.6119C25.157 55.663 33.2406 56.2581 40.4843 53.7279C41.0411 53.533 41.6019 53.3249 42.1335 53.0691C43.0584 52.6251 42.2504 51.2533 41.3282 51.696L41.3295 51.6973Z" fill="#4A2A13"/>
<path d="M20.5344 52.4182C21.3889 52.4182 21.3916 51.0928 20.5344 51.0928C19.6773 51.0928 19.6773 52.4182 20.5344 52.4182Z" fill="#4A2A13"/>
<path d="M20.3559 51.916C22.6921 52.743 25.3937 53.1035 27.8468 52.7497C28.7265 52.6224 29.5212 52.3109 30.369 52.075C31.2089 51.8404 32.0806 51.733 32.9497 51.6906C34.5816 51.6111 36.2241 51.7489 37.836 51.9942C38.7171 52.128 39.6021 52.2857 40.4659 52.5058C40.6732 52.5588 40.7609 52.2394 40.5536 52.1863C38.4168 51.6429 36.159 51.3487 33.9557 51.3381C32.3066 51.3301 30.8209 51.6005 29.2568 52.0949C27.4309 52.6715 25.4469 52.6317 23.5718 52.3454C22.5167 52.185 21.4496 51.9544 20.441 51.5978C20.239 51.5263 20.1526 51.847 20.3533 51.9173L20.3559 51.916Z" fill="#4A2A13"/>
<path d="M32.0815 51.7161C33.5048 52.3152 35.0702 53.0349 36.629 53.2085C36.8416 53.2324 36.8389 52.901 36.629 52.8771C35.1911 52.7181 33.5978 51.9984 32.249 51.4298C32.055 51.3476 31.8849 51.6326 32.0815 51.7161Z" fill="#4A2A13"/>
<path d="M28.8585 52.2603C28.0465 50.854 25.7422 50.6963 24.3509 50.7175C24.1369 50.7215 24.1369 51.0529 24.3509 51.0489C25.608 51.029 27.8259 51.1364 28.5714 52.4273C28.6777 52.6116 28.9648 52.4459 28.8585 52.2603Z" fill="#4A2A13"/>
<path d="M60.5896 40.758L57.5117 30.4104H52.2834L49.2055 40.758H48.9141L54.7536 21.23L54.3164 19.7617H56.6409L62.9141 40.7617H60.5896V40.758ZM52.3972 30.1094H57.3944L54.8958 21.7109L52.3972 30.1094Z" fill="#4A2A13"/>
<path d="M69.9177 40.7617V19.7617H72.2665L77.959 32.1796L83.5652 19.7617H85.9141V40.7617H83.5652V20.4224L77.079 34.7308H76.7845L70.2086 20.3931V40.7617H69.9141H69.9177Z" fill="#4A2A13"/>
<path d="M112.914 30.2332C112.914 36.7966 107.704 40.7617 102.898 40.7617C98.092 40.7617 92.9141 36.7966 92.9141 30.2332C92.9141 23.6698 98.1239 19.7617 102.898 19.7617C107.672 19.7617 112.914 23.7269 112.914 30.2332ZM95.6908 30.2011C95.6908 36.6467 99.452 40.4084 102.898 40.4084C106.344 40.4084 110.134 36.4432 110.134 29.994C110.134 23.5449 106.373 20.1079 102.898 20.1079C99.4237 20.1079 95.6908 23.8696 95.6908 30.2011Z" fill="#4A2A13"/>
<path d="M122.189 40.7617H119.914V19.7617H126.707C134.467 19.7617 134.951 30.7407 128.158 32.0916L132.165 40.7617H129.89L125.911 32.2421H122.185V40.7617H122.189ZM122.189 31.9411H126.707C131.34 31.9411 131.34 20.0627 126.707 20.0627H122.189V31.9411Z" fill="#4A2A13"/>
<path d="M151.59 40.758L148.512 30.4104H143.283L140.206 40.758H139.914L145.754 21.23L145.316 19.7617H147.641L153.914 40.7617H151.59V40.758ZM143.401 30.1094H148.398L145.899 21.7109L143.401 30.1094Z" fill="#4A2A13"/>
<path d="M64.3657 51.6658L63.3369 48.3111H61.5903L60.5615 51.6658H60.4658L62.4144 45.3373L62.2682 44.8604H63.0445L65.1393 51.6658H64.3631H64.3657ZM61.6302 48.2151H63.2997L62.465 45.4919L61.6302 48.2151Z" fill="#4A2A13"/>
<path d="M68.6327 51.6658H67.8564V44.8604H70.1746C72.8224 44.8604 72.9872 48.4176 70.6691 48.8573L72.0355 51.6658H71.2592L69.9008 48.9053H68.63V51.6658H68.6327ZM68.6327 48.8067H70.1746C71.7564 48.8067 71.7564 44.9563 70.1746 44.9563H68.6327V48.8067Z" fill="#4A2A13"/>
<path d="M81.7175 48.2524C81.7175 50.4401 79.9709 51.7617 78.3626 51.7617C76.7542 51.7617 75.0156 50.4401 75.0156 48.2524C75.0156 46.0647 76.7622 44.7617 78.3626 44.7617C79.963 44.7617 81.7175 46.0834 81.7175 48.2524ZM75.9461 48.2444C75.9461 50.3921 77.2062 51.6471 78.3599 51.6471C79.5137 51.6471 80.7844 50.3255 80.7844 48.1751C80.7844 46.0248 79.5243 44.879 78.3599 44.879C77.1955 44.879 75.9461 46.134 75.9461 48.2417V48.2444Z" fill="#4A2A13"/>
<path d="M84.3838 51.6658V44.8604H85.1601L87.0422 48.884L88.8951 44.8604H89.6714V51.6658H88.8951V45.0735L86.7525 49.71H86.6567L84.4848 45.0629V51.6632H84.3891L84.3838 51.6658Z" fill="#4A2A13"/>
<path d="M96.2349 51.6658L95.2061 48.3111H93.4595L92.4307 51.6658H92.335L94.2836 45.3373L94.1374 44.8604H94.9136L97.0085 51.6658H96.2322H96.2349ZM93.502 48.2151H95.1715L94.3368 45.4919L93.502 48.2151Z" fill="#4A2A13"/>
<path d="M101.212 51.6658V44.9669L99.6299 45.0549V44.8604H103.567V45.0549L101.985 44.9669V51.6658H101.209H101.212Z" fill="#4A2A13"/>
<path d="M106.284 44.8604H109.32V45.0549L107.06 44.9669V48.2045L108.961 48.1165V48.3111H107.06V51.5592L109.679 51.4713V51.6658H106.284V44.8604Z" fill="#4A2A13"/>
<path d="M113.267 51.6658H112.491V44.8604H114.809C117.457 44.8604 117.622 48.4176 115.304 48.8573L116.67 51.6658H115.894L114.536 48.9053H113.265V51.6658H113.267ZM113.267 48.8067H114.809C116.391 48.8067 116.391 44.9563 114.809 44.9563H113.267V48.8067Z" fill="#4A2A13"/>
<path d="M123.501 51.6658L122.472 48.3111H120.725L119.696 51.6658H119.601L121.549 45.3373L121.403 44.8604H122.179L124.274 51.6658H123.498H123.501ZM120.765 48.2151H122.434L121.6 45.4919L120.765 48.2151Z" fill="#4A2A13"/>
<path d="M127.767 51.6658H126.991V44.8604H129.309C132.133 44.8604 132.133 48.9053 129.309 48.9053H127.767V51.6658ZM127.767 48.8067H129.309C130.891 48.8067 130.891 44.9563 129.309 44.9563H127.767V48.8067Z" fill="#4A2A13"/>
<path d="M134.198 51.6658V44.8604H134.974V51.6658H134.198Z" fill="#4A2A13"/>
<path d="M141.588 51.6658L140.56 48.3111H138.813L137.784 51.6658H137.688L139.637 45.3373L139.491 44.8604H140.267L142.362 51.6658H141.586H141.588ZM138.853 48.2151H140.522L139.688 45.4919L138.853 48.2151Z" fill="#4A2A13"/>
</svg>
